<svg xmlns="http://www.w3.org/2000/svg" xmlns:xlink="http://www.w3.org/1999/xlink" version="1.1" x="0px" y="0px" viewBox="0 0 100 125" style="enable-background:new 0 0 100 100;" xml:space="preserve"><path d="M80.099,84.245v-68.49c0-5.292-4.306-9.598-9.598-9.598H30.746c-5.292,0-9.598,4.306-9.598,9.598v68.49  c0,5.292,4.306,9.598,9.598,9.598h39.755C75.793,93.843,80.099,89.537,80.099,84.245z M24.344,84.245v-68.49  c0-3.53,2.872-6.402,6.402-6.402h39.755c3.53,0,6.402,2.872,6.402,6.402v68.49c0,3.53-2.872,6.402-6.402,6.402H30.746  C27.216,90.647,24.344,87.775,24.344,84.245z"/><path d="M74.482,83.14V16.86c0-2.897-2.357-5.255-5.255-5.255H32.021c-2.897,0-5.255,2.357-5.255,5.255V83.14  c0,2.897,2.357,5.256,5.255,5.256h37.206C72.124,88.396,74.482,86.037,74.482,83.14z M72.269,83.14c0,1.678-1.364,3.043-3.042,3.043  H32.021c-1.678,0-3.042-1.365-3.042-3.043V16.86c0-1.678,1.364-3.042,3.042-3.042h37.206c1.678,0,3.042,1.364,3.042,3.042V83.14z"/><path d="M65.313,42.236c-0.71,0-1.384,0.262-1.907,0.72c-1.416-0.553-4.123-1.222-7.432-0.141c-0.56,0.179-1.082,0.417-1.583,0.68  c-0.677-1.219-2.2-3.373-4.984-4.539c-2.899-1.213-6.353-1.007-10.256,0.588c-0.525-0.466-1.206-0.731-1.923-0.731  c-1.595,0-2.892,1.297-2.892,2.892s1.297,2.892,2.892,2.892c1.094,0,2.069-0.62,2.544-1.528c2.533-0.102,4.264,2.365,5.076,3.867  c-0.328,0.032-0.659,0.069-1.019,0.129c-3.925,0.641-6.42,3.592-7.453,5.085c-0.151-0.024-0.302-0.049-0.453-0.049  c-1.595,0-2.892,1.297-2.892,2.892s1.297,2.892,2.892,2.892s2.892-1.297,2.892-2.892c0-0.292-0.045-0.575-0.127-0.846  c3.259-1.909,5.286-0.983,6.2-0.258c-0.364,0.363-0.521,0.637-0.557,0.708c-0.153,0.301-0.119,0.662,0.088,0.929l1.339,1.717  c0.171,0.219,0.426,0.333,0.685,0.333c0.183,0,0.367-0.058,0.524-0.177c0.025-0.02,2.663-2.012,5.181-2.604  c2.476-0.586,5.448,0.246,5.478,0.253c0.229,0.066,0.47,0.035,0.673-0.083s0.351-0.314,0.407-0.543l0.629-2.552  c0.094-0.381-0.08-0.776-0.424-0.966c-0.325-0.18-0.638-0.284-0.974-0.355c0.427-2.489,3.066-3.648,4.796-4.144  c0.472,0.961,1.453,1.614,2.581,1.614c1.602,0,2.903-1.297,2.903-2.892S66.914,42.236,65.313,42.236z M37.228,42.865  c-0.639,0-1.159-0.521-1.159-1.159s0.521-1.159,1.159-1.159c0.386,0,0.747,0.192,0.966,0.514c0.126,0.188,0.193,0.41,0.193,0.646  c0,0.104-0.013,0.193-0.052,0.315C38.203,42.518,37.748,42.865,37.228,42.865z M35.923,56.152c-0.639,0-1.159-0.521-1.159-1.159  s0.521-1.159,1.159-1.159c0.161,0,0.325,0.037,0.479,0.106c0.188,0.085,0.345,0.213,0.466,0.381l0.001,0.001  c0.141,0.195,0.213,0.421,0.213,0.671C37.082,55.632,36.562,56.152,35.923,56.152z M56.203,50.373  c-1.044-0.043-2.872-0.019-4.918,0.469c-2.19,0.527-4.039,1.478-4.969,2.01c-1.081-0.999-3.736-2.682-7.889-0.542  c1.094-1.333,3.001-3.096,5.683-3.534c0.77-0.127,1.435-0.182,2.076-0.173c2.672,0.011,3.64,1.026,3.668,1.057  c0.205,0.241,0.525,0.352,0.833,0.287c0.31-0.062,0.562-0.29,0.656-0.591c0.007-0.023,0.763-2.36,3.157-3.933  c0.599-0.402,1.272-0.725,2.007-0.96c2.622-0.859,4.76-0.427,5.995,0.01c-0.016,0.071-0.037,0.14-0.047,0.213  C60.309,45.267,56.712,46.771,56.203,50.373z M65.313,46.287c-0.585,0-1.076-0.438-1.142-1.017  c-0.006-0.046-0.005-0.098-0.018-0.143c0-0.235,0.067-0.458,0.193-0.646c0.219-0.321,0.58-0.514,0.966-0.514  c0.646,0,1.171,0.521,1.171,1.159S65.958,46.287,65.313,46.287z"/></svg>